<svg width="96" height="96" viewBox="0 0 96 96" fill="none" xmlns="http://www.w3.org/2000/svg">
<circle cx="48" cy="48" r="40" fill="#E6E8EA"/>
<path d="M82.2379 68.6936C75.2285 80.2661 62.5173 88 47.9998 88C33.4823 88 20.7712 80.2661 13.7617 68.6936C16.4161 63.5313 21.7956 60 27.9998 60H35.9998L47.9998 72L59.9998 60H67.9998C74.2041 60 79.5835 63.5313 82.2379 68.6936Z" fill="#76808F"/>
<path fill-rule="evenodd" clip-rule="evenodd" d="M66 34C66 24.0589 57.9411 16 48 16C38.0589 16 30 24.0589 30 34C30 43.9411 38.0589 52 48 52C57.9411 52 66 43.9411 66 34Z" fill="url(#paint0_linear)"/>
<defs>
<linearGradient id="paint0_linear" x1="48" y1="52" x2="48" y2="16" gradientUnits="userSpaceOnUse">
<stop stop-color="#F0B90B"/>
<stop offset="1" stop-color="#F8D33A"/>
</linearGradient>
</defs>
</svg>
